<svg width="117px" height="27px" viewBox="0 0 117 27" version="1.1" xmlns="http://www.w3.org/2000/svg" xmlns:xlink="http://www.w3.org/1999/xlink">
    <title>Techloq</title>
    <g stroke="none" stroke-width="1" fill="none" fill-rule="evenodd">
        <path d="M14.3667236,7.9243333 C14.3628944,7.92158518 14.3577887,7.92264215 14.3537468,7.92010542 L8.67902586,3.82306909 L13.7576617,0.156431912 C13.9021092,0.0522144354 14.0722976,0 14.2422733,0 C14.4124618,0 14.5824375,0.0522144354 14.7270977,0.156431912 L22.4006818,5.69644693 L20.2769428,12.1911194 L14.3667236,7.9243333 Z M28.1447332,9.84358375 C28.4338409,10.0522301 28.5546746,10.4221704 28.4442649,10.7597674 L23.3192527,26.4336108 C23.2088429,26.7714192 22.8920797,26.9999366 22.5348967,26.9999366 L13.0651862,26.9999366 L10.9414472,20.5050527 L18.2316819,20.5050527 C18.3233709,20.5050527 18.4044232,20.4462851 18.4329297,20.3598247 L19.7025355,16.4767196 L19.7091303,16.4788335 L23.0754577,6.18371119 L28.1447332,9.84358375 Z M10.0664233,20.3797592 L12.2310076,27 L5.94977762,27 C5.59259463,27 5.27583139,26.7712712 5.16563437,26.4336742 L0.040409408,10.7596194 C-0.0700003445,10.4220225 0.0510461857,10.0522935 0.339941068,9.84364717 L8.00416487,4.31039677 L13.5640086,8.32435507 L7.66293704,12.5843765 C7.58890506,12.6378593 7.55805841,12.7325641 7.5861395,12.8192358 L10.0517446,20.3596767 C10.0545101,20.3679211 10.0628068,20.372149 10.0664233,20.3797592 Z M25.7038055,21.7739058 L30,26.9997886 L23.7325978,26.9997886 C23.9374622,26.9046611 24.0980775,26.6848108 24.1708331,26.4620011 L25.7038055,21.7739058 Z" id="icon/logo" fill="#0088D0"></path>
        <path d="M47.6767996,9.33200048 L43.7791997,9.33200048 L43.7791997,20 L42.1579998,20 L42.1579998,9.33200048 L38.252,9.33200048 L38.252,7.96280055 L47.6767996,7.96280055 L47.6767996,9.33200048 Z M56.8831991,18.6728001 L56.8747991,20 L49.4575995,20 L49.4575995,7.96280055 L56.8747991,7.96280055 L56.8747991,9.29000049 L51.0871994,9.29000049 L51.0871994,13.2884003 L55.7743992,13.2884003 L55.7743992,14.5652002 L51.0871994,14.5652002 L51.0871994,18.6728001 L56.8831991,18.6728001 Z M67.3495987,17.5136001 C67.4391991,17.5136001 67.5175983,17.5499997 67.5847987,17.6228001 L68.2315986,18.3200001 C67.7387962,18.8912029 67.1410022,19.3363984 66.4381987,19.6556 C65.7353952,19.9748016 64.8856038,20.1344 63.8887988,20.1344 C63.0263946,20.1344 62.2424024,19.9846015 61.5367989,19.685 C60.8311954,19.3853985 60.2292015,18.9654027 59.730799,18.4250001 C59.2323965,17.8845974 58.8460004,17.2364039 58.5715991,16.4804002 C58.2971977,15.7243964 58.1599991,14.8928048 58.1599991,13.9856003 C58.1599991,13.0783958 58.3027976,12.2468041 58.5883991,11.4908004 C58.8740005,10.7347966 59.2757964,10.0852032 59.793799,9.54200047 C60.3118016,8.99879778 60.9319953,8.57740202 61.6543989,8.27780053 C62.3768025,7.97819905 63.1747945,7.82840055 64.0483988,7.82840055 C64.9052031,7.82840055 65.6611955,7.96559917 66.3163987,8.24000053 C66.971602,8.51440189 67.5483962,8.88679815 68.0467986,9.35720048 L67.5091987,10.1048004 C67.4755985,10.1608007 67.4321989,10.2070003 67.3789987,10.2434004 C67.3257984,10.2798006 67.2543991,10.2980004 67.1647987,10.2980004 C67.0639982,10.2980004 66.9407994,10.243401 66.7951987,10.1342004 C66.649598,10.0249999 66.4591999,9.90320113 66.2239987,9.76880046 C65.9887976,9.6343998 65.6948005,9.51260102 65.3419988,9.40340048 C64.989197,9.29419994 64.5552014,9.23960049 64.0399988,9.23960049 C63.4183957,9.23960049 62.8500014,9.34739941 62.3347989,9.56300047 C61.8195963,9.77860154 61.3758008,10.0907984 61.003399,10.4996004 C60.6309971,10.9084025 60.3412,11.4067975 60.133999,11.9948004 C59.926798,12.5828033 59.823199,13.2463966 59.823199,13.9856003 C59.823199,14.736004 59.9309979,15.4051973 60.146599,15.9932002 C60.3622001,16.5812031 60.6561971,17.0781981 61.028599,17.4842001 C61.4010008,17.8902021 61.8405964,18.199599 62.3473989,18.4124001 C62.8542014,18.6252011 63.4015959,18.7316001 63.9895988,18.7316001 C64.3480006,18.7316001 64.6713973,18.7106003 64.9597988,18.6686001 C65.2482002,18.6265999 65.5141975,18.5608005 65.7577987,18.4712001 C66.0013999,18.3815996 66.2281977,18.2682008 66.4381987,18.1310001 C66.6481997,17.9937994 66.8567977,17.8300011 67.0639987,17.6396001 C67.1591992,17.5555997 67.2543982,17.5136001 67.3495987,17.5136001 Z M79.8739981,7.96280055 L79.8739981,20 L78.2443982,20 L78.2443982,14.5232002 L71.7511985,14.5232002 L71.7511985,20 L70.1215985,20 L70.1215985,7.96280055 L71.7511985,7.96280055 L71.7511985,13.3304003 L78.2443982,13.3304003 L78.2443982,7.96280055 L79.8739981,7.96280055 Z M89.7775976,18.6308001 L89.7775976,20 L82.948398,20 L82.948398,7.96280055 L84.5695979,7.96280055 L84.5695979,18.6308001 L89.7775976,18.6308001 Z M102.133997,13.9856003 C102.133997,14.8872047 101.991199,15.7145964 101.705597,16.4678002 C101.419996,17.2210039 101.0168,17.8691974 100.495997,18.4124001 C99.9751946,18.9556028 99.3494009,19.3769985 98.6185972,19.6766 C97.8877936,19.9762015 97.0800017,20.126 96.1951974,20.126 C95.310393,20.126 94.5040011,19.9762015 93.7759975,19.6766 C93.0479939,19.3769985 92.4236001,18.9556028 91.9027976,18.4124001 C91.381995,17.8691974 90.978799,17.2210039 90.6931976,16.4678002 C90.4075962,15.7145964 90.2647976,14.8872047 90.2647976,13.9856003 C90.2647976,13.0839958 90.4075962,12.2566041 90.6931976,11.5034004 C90.978799,10.7501967 91.381995,10.1006032 91.9027976,9.55460047 C92.4236001,9.00859777 93.0479939,8.58440203 93.7759975,8.28200053 C94.5040011,7.97959903 95.310393,7.82840055 96.1951974,7.82840055 C97.0800017,7.82840055 97.8877936,7.97959903 98.6185972,8.28200053 C99.3494009,8.58440203 99.9751946,9.00859777 100.495997,9.55460047 C101.0168,10.1006032 101.419996,10.7501967 101.705597,11.5034004 C101.991199,12.2566041 102.133997,13.0839958 102.133997,13.9856003 Z M100.462397,13.9856003 C100.462397,13.2463966 100.361598,12.5828033 100.159997,11.9948004 C99.9583962,11.4067975 99.672799,10.9098024 99.3031972,10.5038004 C98.9335954,10.0977984 98.4855999,9.78560156 97.9591973,9.56720047 C97.4327947,9.34879939 96.8448006,9.23960049 96.1951974,9.23960049 C95.5511942,9.23960049 94.966,9.34879939 94.4395974,9.56720047 C93.9131948,9.78560156 93.4637993,10.0977984 93.0913975,10.5038004 C92.7189957,10.9098024 92.4319985,11.4067975 92.2303975,11.9948004 C92.0287965,12.5828033 91.9279976,13.2463966 91.9279976,13.9856003 C91.9279976,14.7248039 92.0287965,15.3869973 92.2303975,15.9722002 C92.4319985,16.5574031 92.7189957,17.0529981 93.0913975,17.4590001 C93.4637993,17.8650021 93.9131948,18.175799 94.4395974,18.3914001 C94.966,18.6070011 95.5511942,18.7148001 96.1951974,18.7148001 C96.8448006,18.7148001 97.4327947,18.6070011 97.9591973,18.3914001 C98.4855999,18.175799 98.9335954,17.8650021 99.3031972,17.4590001 C99.672799,17.0529981 99.9583962,16.5574031 100.159997,15.9722002 C100.361598,15.3869973 100.462397,14.7248039 100.462397,13.9856003 Z M105.384797,13.9856003 C105.384797,14.7248039 105.485596,15.3869973 105.687197,15.9722002 C105.888798,16.5574031 106.175795,17.0529981 106.548197,17.4590001 C106.920599,17.8650021 107.369994,18.175799 107.896397,18.3914001 C108.422799,18.6070011 109.007994,18.7148001 109.651997,18.7148001 C110.3016,18.7148001 110.889594,18.6070011 111.415997,18.3914001 C111.942399,18.175799 112.390395,17.8650021 112.759997,17.4590001 C113.129598,17.0529981 113.415196,16.5574031 113.616797,15.9722002 C113.818398,15.3869973 113.919197,14.7248039 113.919197,13.9856003 C113.919197,13.2463966 113.818398,12.5828033 113.616797,11.9948004 C113.415196,11.4067975 113.129598,10.9098024 112.759997,10.5038004 C112.390395,10.0977984 111.942399,9.78560156 111.415997,9.56720047 C110.889594,9.34879939 110.3016,9.23960049 109.651997,9.23960049 C109.007994,9.23960049 108.422799,9.34879939 107.896397,9.56720047 C107.369994,9.78560156 106.920599,10.0977984 106.548197,10.5038004 C106.175795,10.9098024 105.888798,11.4067975 105.687197,11.9948004 C105.485596,12.5828033 105.384797,13.2463966 105.384797,13.9856003 Z M116.145196,22.4863999 L114.801197,22.4863999 C114.599596,22.4863999 114.420397,22.4584002 114.263597,22.4023999 C114.106796,22.3463996 113.963997,22.2484006 113.835197,22.1083999 L111.726797,19.8068 C111.088393,20.0196011 110.3968,20.126 109.651997,20.126 C108.767192,20.126 107.9608,19.9762015 107.232797,19.6766 C106.504793,19.3769985 105.8804,18.9556028 105.359597,18.4124001 C104.838794,17.8691974 104.435598,17.2210039 104.149997,16.4678002 C103.864396,15.7145964 103.721597,14.8872047 103.721597,13.9856003 C103.721597,13.0839958 103.864396,12.2566041 104.149997,11.5034004 C104.435598,10.7501967 104.838794,10.1006032 105.359597,9.55460047 C105.8804,9.00859777 106.504793,8.58440203 107.232797,8.28200053 C107.9608,7.97959903 108.767192,7.82840055 109.651997,7.82840055 C110.536801,7.82840055 111.344593,7.97959903 112.075397,8.28200053 C112.8062,8.58440203 113.431994,9.00859777 113.952797,9.55460047 C114.473599,10.1006032 114.876795,10.7501967 115.162396,11.5034004 C115.447998,12.2566041 115.590796,13.0839958 115.590796,13.9856003 C115.590796,14.5512031 115.533397,15.0887977 115.418596,15.5984002 C115.303796,16.1080027 115.137198,16.582598 114.918797,17.0222001 C114.700395,17.4618023 114.434398,17.8607983 114.120797,18.2192001 C113.807195,18.5776019 113.454399,18.8883987 113.062397,19.1516 L116.145196,22.4863999 Z" id="TECHLOQ" fill="#333333"></path>
    </g>
</svg>
